<svg width="34" height="70" viewBox="0 0 34 70" fill="none" xmlns="http://www.w3.org/2000/svg">
<path d="M4.82532 17.8004L0.144866 33.4795C-0.826549 36.8394 3.3682 38.3177 4.38377 35.0475L8.57851 20.8466H11.007L4.03052 45.9333H10.6097V66.0921C10.6097 69.228 15.9083 69.228 15.9083 66.0921V45.9333H18.116V65.6442C18.116 69.228 23.4147 69.228 23.4147 65.6442V45.9333H30.0379L23.0614 20.8466H25.3575L29.5522 35.1371C30.5678 38.2281 34.8067 36.929 33.8353 33.5691L29.1548 17.8452C28.6691 16.0533 26.4614 12.7831 22.6199 12.7831H11.9343C8.13696 12.7831 5.39933 16.0533 4.82532 17.8004Z" fill="#65CBFF"/>
<path d="M22.3991 6.33224C22.3991 9.37847 19.9706 11.8423 16.968 11.8423C13.9654 11.8423 11.5369 9.33367 11.5369 6.33224C11.5369 3.24121 13.9654 0.777344 16.968 0.777344C19.9706 0.777344 22.3991 3.28601 22.3991 6.33224Z" fill="#65CBFF"/>
</svg>
