<svg width="35" height="70" viewBox="0 0 35 70" fill="none" xmlns="http://www.w3.org/2000/svg">
<path d="M17.5002 12.5722C20.5108 12.5722 22.9459 10.1092 22.9459 7.06394C22.9459 4.01871 20.5108 1.55566 17.5002 1.55566C14.4896 1.55566 12.0546 4.01871 12.0546 7.06394C12.0546 10.1092 14.4896 12.5722 17.5002 12.5722ZM7.53868 37.964V21.3944H10.0623V66.1323C10.0623 67.8341 11.5233 69.2223 13.2057 69.2223C14.8881 69.2223 16.3491 67.8341 16.3491 66.1323V40.2031H18.5628V66.0875C18.5628 67.7893 20.0238 69.1775 21.7062 69.1775C23.3886 69.1775 24.8053 67.8341 24.8053 66.0875L24.8496 21.3496H27.4618V37.9192C27.4618 41.054 31.8891 41.054 31.8891 37.9192V20.8122C31.8891 16.8266 28.7014 13.647 24.8496 13.647H10.2836C6.03338 13.647 3.11133 17.2296 3.11133 20.9018V37.964C3.11133 41.0988 7.53868 41.0988 7.53868 37.964Z" fill="#4A78DF"/>
</svg>
