<svg width="100" height="100" viewBox="0 0 100 100" fill="none" xmlns="http://www.w3.org/2000/svg">
<path d="M46.0713 55.9298C46.7384 49.5549 50.7412 44.3661 55.4111 44.3661C60.0811 44.3661 62.6013 49.5549 61.9342 55.9298C61.2671 62.3046 57.4125 67.5675 53.0391 67.5675C48.6657 67.5675 45.1076 63.5647 46.0713 55.9298ZM49.9999 84.8389C39.623 84.8537 29.782 80.2322 23.1664 72.2375C28.9482 74.0906 35.3971 72.4598 40.4377 67.4934C40.97 66.9594 41.4653 66.3898 41.9202 65.7885C44.2181 70.7549 48.6657 73.2752 53.1132 73.2752C60.6741 73.2752 67.0489 65.492 67.7902 55.8556C68.5314 46.2193 63.1202 38.5843 55.93 38.5843C53.321 38.5481 50.7537 39.2413 48.5174 40.5857L50.7412 27.6137C50.9629 26.5753 50.7191 25.492 50.0741 24.6487C49.4069 23.6109 48.8139 23.1661 47.9244 23.1661H37.5468C36.9333 23.1981 36.4322 23.6678 36.3608 24.278C36.085 25.4997 35.887 26.7376 35.7678 27.9843C35.6937 28.7997 36.2867 29.0962 36.9538 29.0962H44.5146C43.3286 36.5088 40.9566 50.8892 40.2895 54.5214C39.5901 57.9594 37.9177 61.1241 35.4713 63.6389C31.3202 67.7899 23.6853 68.7536 19.1636 64.2319C17.6069 62.6011 15.1608 58.5983 15.1608 49.9997C15.1608 30.7586 30.7588 15.1605 49.9999 15.1605C69.2411 15.1605 84.8391 30.7586 84.8391 49.9997C84.8391 69.2408 69.2411 84.8389 49.9999 84.8389ZM49.9999 9.23047C27.4837 9.23047 9.23071 27.4835 9.23071 49.9997C9.23071 72.5159 27.4837 90.7689 49.9999 90.7689C72.5162 90.7689 90.7692 72.5159 90.7692 49.9997C90.7692 39.187 86.4739 28.8172 78.8282 21.1715C71.1824 13.5258 60.8126 9.23047 49.9999 9.23047Z" fill="#212124"/>
</svg>
