<svg width="100" height="100" viewBox="0 0 100 100" fill="none" xmlns="http://www.w3.org/2000/svg">
<path d="M68.75 91.6663H31.25C27.9348 91.6663 24.7554 90.3494 22.4112 88.0052C20.067 85.661 18.75 82.4816 18.75 79.1663V20.833C18.75 17.5178 20.067 14.3384 22.4112 11.9942C24.7554 9.64997 27.9348 8.33301 31.25 8.33301H58.7083C59.8014 8.33761 60.8489 8.77157 61.625 9.54134L80.0417 27.958C80.8114 28.7341 81.2454 29.7816 81.25 30.8747V79.1663C81.25 82.4816 79.933 85.661 77.5888 88.0052C75.2446 90.3494 72.0652 91.6663 68.75 91.6663Z" fill="#4CAF50"/>
<path d="M78.3311 32.25H63.3311C61.6735 32.25 60.0838 31.5915 58.9117 30.4194C57.7396 29.2473 57.0811 27.6576 57.0811 26V11C57.0793 10.5454 57.2127 10.1006 57.4644 9.72205C57.7161 9.34351 58.0746 9.04837 58.4945 8.87417C58.9144 8.69997 59.3766 8.65457 59.8223 8.74376C60.2681 8.83294 60.6772 9.05267 60.9977 9.37501L79.9561 28.3333C80.2784 28.6539 80.4981 29.063 80.5873 29.5088C80.6765 29.9545 80.6311 30.4167 80.4569 30.8366C80.2827 31.2564 79.9876 31.615 79.609 31.8667C79.2305 32.1184 78.7856 32.2518 78.3311 32.25V32.25Z" fill="#B9F6CA"/>
<path d="M38.2901 75.4602C37.111 75.5008 35.9393 75.2579 34.8734 74.7519C33.9159 74.2861 33.1183 73.5465 32.5818 72.6268C32.0135 71.6244 31.7256 70.4873 31.7484 69.3352C31.7214 68.1826 32.0096 67.0444 32.5818 66.0435C33.1082 65.1258 33.9099 64.397 34.8734 63.9602C35.9357 63.4398 37.1076 63.1826 38.2901 63.2102C38.7744 63.1513 39.2641 63.1513 39.7484 63.2102C40.2945 63.2909 40.8271 63.4451 41.3318 63.6685C41.6629 63.7958 41.9417 64.0305 42.1234 64.3352C42.2807 64.629 42.3528 64.9609 42.3318 65.2935C42.3041 65.6039 42.2042 65.9036 42.0401 66.1685C41.9652 66.3023 41.8637 66.4194 41.7419 66.5125C41.6201 66.6057 41.4805 66.6729 41.3318 66.7102C41.1819 66.7807 41.0183 66.8173 40.8526 66.8173C40.6869 66.8173 40.5233 66.7807 40.3734 66.7102C39.8659 66.4674 39.3111 66.3394 38.7484 66.3352C38.3875 66.3137 38.026 66.3695 37.6883 66.4988C37.3506 66.6281 37.0444 66.828 36.7901 67.0852C36.3116 67.7022 36.0746 68.4726 36.1234 69.2519C36.0666 70.0321 36.3045 70.8052 36.7901 71.4185C37.0353 71.6901 37.339 71.9025 37.6782 72.0396C38.0174 72.1768 38.3834 72.2351 38.7484 72.2102H39.5401L40.3734 71.9185C40.5233 71.848 40.6869 71.8114 40.8526 71.8114C41.0183 71.8114 41.1819 71.848 41.3318 71.9185C41.474 71.9586 41.6064 72.0273 41.7211 72.1204C41.8357 72.2136 41.9301 72.3292 41.9984 72.4602C42.1803 72.7164 42.2819 73.021 42.2901 73.3352C42.3268 73.6688 42.2537 74.0053 42.0818 74.2935C41.9 74.5981 41.6212 74.8329 41.2901 74.9602C40.791 75.1589 40.275 75.3123 39.7484 75.4185L38.2901 75.4602Z" fill="white"/>
<path d="M49.1219 75.4566C48.415 75.5186 47.7039 75.5186 46.9969 75.4566C46.3206 75.3759 45.6603 75.1932 45.0386 74.9149C44.8224 74.8548 44.6214 74.7494 44.449 74.6058C44.2766 74.4621 44.1367 74.2834 44.0386 74.0816C43.9147 73.7311 43.9147 73.3487 44.0386 72.9983C44.1476 72.6462 44.3858 72.3485 44.7053 72.1649C44.8851 72.07 45.0853 72.0205 45.2886 72.0205C45.4919 72.0205 45.6921 72.07 45.8719 72.1649C46.4345 72.3973 47.0216 72.565 47.6219 72.6649C48.148 72.7244 48.6792 72.7244 49.2053 72.6649C49.6371 72.6992 50.0699 72.6127 50.4553 72.4149C50.5718 72.3477 50.6682 72.2503 50.7342 72.133C50.8001 72.0157 50.8333 71.8828 50.8303 71.7482C50.8371 71.6443 50.8177 71.5403 50.7741 71.4457C50.7304 71.3511 50.6638 71.2689 50.5803 71.2066C50.4159 71.04 50.2167 70.9119 49.9969 70.8316L47.3719 70.3733C46.5117 70.2971 45.7033 69.9296 45.0803 69.3316C44.8032 69.0363 44.5869 68.6892 44.4439 68.3103C44.301 67.9314 44.234 67.528 44.2469 67.1233C44.2469 66.3569 44.4955 65.6113 44.9553 64.9983C45.4591 64.3762 46.1212 63.9012 46.8719 63.6233C47.7761 63.2783 48.7377 63.1086 49.7053 63.1233C50.3572 63.0748 51.0117 63.0748 51.6636 63.1233C52.2509 63.2419 52.8236 63.4235 53.3719 63.6649C53.5639 63.7334 53.7383 63.8437 53.8824 63.9878C54.0265 64.1319 54.1368 64.3063 54.2053 64.4983C54.3292 64.8487 54.3292 65.2311 54.2053 65.5816C54.0771 65.9251 53.8242 66.2078 53.4969 66.3733C53.3171 66.4681 53.1169 66.5177 52.9136 66.5177C52.7103 66.5177 52.5101 66.4681 52.3303 66.3733C51.8713 66.1821 51.3975 66.0289 50.9136 65.9149C50.5395 65.8776 50.1627 65.8776 49.7886 65.9149C49.3121 65.8832 48.8362 65.9842 48.4136 66.2066C48.2893 66.2683 48.1845 66.3633 48.1109 66.481C48.0374 66.5987 47.9979 66.7345 47.9969 66.8733C47.9969 67.2899 48.2886 67.5399 48.8719 67.6649L51.5386 68.1233C52.4015 68.2058 53.2171 68.5553 53.8719 69.1233C54.1518 69.4081 54.3701 69.7474 54.5135 70.1201C54.6568 70.4928 54.7221 70.891 54.7053 71.2899C54.7303 71.8762 54.6057 72.4591 54.3433 72.9839C54.0809 73.5088 53.6893 73.9582 53.2053 74.2899C52.0132 75.125 50.5753 75.5358 49.1219 75.4566V75.4566Z" fill="white"/>
<path d="M61.8357 75.4154C61.3142 75.4254 60.803 75.2694 60.3761 74.9698C59.9492 74.6702 59.6286 74.2425 59.4607 73.7487L56.044 65.957C55.9006 65.6653 55.826 65.3446 55.826 65.0195C55.826 64.6945 55.9006 64.3738 56.044 64.082C56.2422 63.7867 56.5187 63.5524 56.8424 63.4052C57.1662 63.258 57.5246 63.2038 57.8774 63.2487C58.3119 63.2264 58.7402 63.3593 59.0857 63.6237C59.5086 63.9667 59.8144 64.4326 59.9607 64.957L61.9607 70.1237L64.0857 64.9154C64.2466 64.4198 64.5338 63.9746 64.919 63.6237C65.3118 63.359 65.7792 63.2275 66.2524 63.2487C66.6607 63.2316 67.061 63.365 67.3774 63.6237C67.6822 63.873 67.8767 64.2322 67.919 64.6237C67.9904 65.079 67.9176 65.5452 67.7107 65.957L64.2107 73.7904C64.0413 74.28 63.7191 74.7023 63.2914 74.9949C62.8638 75.2875 62.3535 75.4349 61.8357 75.4154Z" fill="white"/>
</svg>
