<svg width="100" height="100" viewBox="0 0 100 100" fill="none" xmlns="http://www.w3.org/2000/svg">
<path d="M37.716 23.4649C38.4595 21.5133 39.4818 19.7165 40.9997 18.2605C47.0715 12.3436 57.1086 13.8306 61.2288 21.2655C64.3267 26.9036 67.6104 32.4178 70.8012 37.994L86.7862 65.8128C91.2162 73.5885 86.4145 83.4087 77.6165 84.7408C72.2262 85.5463 67.1767 83.068 64.3886 78.2353L50.3243 53.8241C50.2314 53.6382 50.1074 53.4833 49.9835 53.3284C49.4879 52.9257 49.271 52.3371 48.9612 51.8105L38.6144 33.8738C37.4062 31.7672 36.8486 29.4748 36.9105 27.0585C37.0035 25.8193 37.1584 24.5802 37.716 23.4649" fill="#3C8BD9"/>
<path d="M37.7106 23.4688C37.4318 24.584 37.184 25.6992 37.122 26.8764C37.0291 29.4786 37.6796 31.895 38.9807 34.1564L49.1727 51.7833C49.4825 52.3099 49.7304 52.8366 50.0401 53.3322L44.433 62.9666L36.5954 76.4733C36.4715 76.4733 36.4405 76.4113 36.4095 76.3184C36.3785 76.0706 36.4715 75.8537 36.5334 75.6059C37.8036 70.9591 36.7503 66.8389 33.5595 63.3074C31.6078 61.1698 29.1295 59.9617 26.2795 59.5589C22.562 59.0323 19.2783 59.9926 16.3353 62.316C15.8087 62.7188 15.4679 63.3074 14.8483 63.6171C14.7244 63.6171 14.6624 63.5552 14.6315 63.4622L19.0614 55.7486L37.4938 23.8095C37.5557 23.6856 37.6487 23.5927 37.7106 23.4688" fill="#FABC04"/>
<path d="M14.7596 63.5513L16.5253 61.9714C24.0532 56.0234 35.3604 60.3295 37.0023 69.747C37.405 72.0085 37.1881 74.177 36.5066 76.3455C36.4756 76.5313 36.4446 76.6862 36.3827 76.8721C36.1039 77.3678 35.8561 77.8944 35.5463 78.3901C32.7892 82.9439 28.7309 85.2054 23.4026 84.8646C17.2998 84.4309 12.4981 79.8461 11.6617 73.7742C11.259 70.8313 11.8476 68.0742 13.3655 65.5339C13.6753 64.9763 14.047 64.4806 14.3878 63.923C14.5427 63.7991 14.4807 63.5513 14.7596 63.5513" fill="#34A852"/>
<path d="M14.7592 63.5526C14.6352 63.6765 14.6352 63.8934 14.4184 63.9244C14.3874 63.7075 14.5113 63.5836 14.6352 63.4287L14.7592 63.5526Z" fill="#FABC04"/>
<path d="M36.3791 76.8723C36.2552 76.6555 36.3791 76.5006 36.503 76.3457L36.6269 76.4696L36.3791 76.8723" fill="#E1C025"/>
</svg>
