<svg width="1920" height="1080" viewBox="0 0 1920 1080" fill="none" xmlns="http://www.w3.org/2000/svg">
<path opacity="0.05" fill-rule="evenodd" clip-rule="evenodd" d="M600.922 378.526L873.217 311L707.969 570.831L600.922 378.526ZM600.78 378.492L328.484 445.093L328.541 445.195L56.3203 512.74L163.297 704.975L163.337 705.045L270.344 897.249L435.592 637.418L163.397 704.95L328.558 445.226L435.532 637.398L600.78 378.492ZM-1.89062 964.877L270.405 897.32L104.306 1156.11L376.45 1089.57L270.41 897.323L542.706 829.797L376.57 1089.55L648.694 1022.04L483.446 1280.94L376.436 1089.66L211.254 1348.43L104.265 1156.17L104.23 1156.23L-1.89062 964.877ZM-109 772.592L163.265 705.066L-1.98379 964.897L-109 772.592ZM435.598 637.503L707.893 570.902L542.645 829.808L435.598 637.503ZM980.19 503.375L707.895 570.901L814.911 762.28L980.19 503.375ZM542.707 829.823L814.971 762.297L648.797 1022.13L542.707 829.823Z" fill="url(#paint0_linear_1608_56016)"/>
<path fill-rule="evenodd" clip-rule="evenodd" d="M1820.33 -7.80851L1917.89 -32L1858.68 61.0858L1820.33 -7.80851ZM1820.28 -7.82031L1722.73 16.0397L1722.75 16.078L1625.23 40.2768L1663.57 109.171L1663.57 109.168L1701.9 178.023L1761.1 84.9375L1663.59 109.13L1722.76 16.0887L1761.08 84.9342L1820.28 -7.82031ZM1604.37 202.253L1701.92 178.051L1642.42 270.765L1739.91 246.927L1701.93 178.055L1799.48 153.863L1739.96 246.917L1837.45 222.73L1778.25 315.485L1739.91 246.959L1680.73 339.665L1642.4 270.787L1642.39 270.805L1604.37 202.253ZM1566 133.363L1663.54 109.172L1604.34 202.258L1566 133.363ZM1761.1 84.9654L1858.66 61.1055L1799.45 153.86L1761.1 84.9654ZM1956.21 36.918L1858.66 61.1095L1897 129.672L1956.21 36.918ZM1799.48 153.867L1897.02 129.676L1837.49 222.762L1799.48 153.867Z" fill="url(#paint1_linear_1608_56016)"/>
<defs>
<linearGradient id="paint0_linear_1608_56016" x1="512.546" y1="1022.04" x2="512.546" y2="1280.94" gradientUnits="userSpaceOnUse">
<stop stop-color="#5A91FF"/>
<stop offset="1" stop-color="#4A78DF" stop-opacity="0"/>
</linearGradient>
<linearGradient id="paint1_linear_1608_56016" x1="1566" y1="339.445" x2="1956.21" y2="339.445" gradientUnits="userSpaceOnUse">
<stop stop-color="#4A78DF"/>
<stop offset="0.9998" stop-color="#83D5FF"/>
<stop offset="0.9999" stop-color="#83D5FF"/>
<stop offset="1" stop-color="#83D5FF"/>
</linearGradient>
</defs>
</svg>
